<svg xmlns="http://www.w3.org/2000/svg" viewBox="0 0 48 48"><rect width="48" height="48" rx="12" fill="#33CCFF"/><path fill="#fff" d="M12 27c-3.2-.7-5-2.8-5-5.8 0-1.4.4-2.7 1.2-3.8.6-.8 1.8-.5 1.9.5.5 3.8 2.7 5.3 6.2 5.3h16.1c4.4 0 8.1-3.5 8.1-7.9S36.8 7.3 32.4 7.3H20.9c-6.3 0-11.4 5.1-11.4 11.4v8.7c0 3.3 2.7 6 6 6h1.1c1 .1 1.3 1.3.5 1.9-1.5 1.2-3.5 1.6-5.1 1.2z" opacity=".95"/><circle cx="19" cy="39" r="4" fill="#111"/><circle cx="34" cy="39" r="4" fill="#111"/><circle cx="19" cy="39" r="1.5" fill="#fff"/><circle cx="34" cy="39" r="1.5" fill="#fff"/><circle cx="21" cy="20" r="2" fill="#111"/><circle cx="32" cy="20" r="2" fill="#111"/><path d="M23 27c2.8 2 6 2 8.8 0" fill="none" stroke="#111" stroke-width="2.4" stroke-linecap="round"/></svg>
