<svg xmlns="http://www.w3.org/2000/svg" viewBox="0 0 48 48"><circle cx="24" cy="24" r="22" fill="#25D366"/><path fill="#fff" d="M35.2 12.8A15.9 15.9 0 0 0 9.4 31.2L7.5 40.5l9.5-2.5a15.9 15.9 0 0 0 18.2-25.2zM24 37a12.9 12.9 0 0 1-6.6-1.8l-.5-.3-5.6 1.5 1.5-5.5-.4-.6A12.9 12.9 0 1 1 24 37zm7.1-9.7c-.4-.2-2.3-1.1-2.7-1.3-.4-.1-.7-.2-1 .2-.3.4-1.1 1.3-1.3 1.6-.2.3-.5.3-.9.1-2.5-1.2-4.1-2.2-5.7-5-.4-.6.4-.6 1-2 .1-.3.1-.6 0-.8-.1-.2-1-2.4-1.3-3.3-.4-.9-.7-.8-1-.8h-.9c-.3 0-.8.1-1.2.6-.4.4-1.6 1.6-1.6 3.8s1.7 4.4 1.9 4.7c.2.3 3.3 5 8 7 1.1.5 2 .8 2.7 1 .1 0 2.1.7 4 .4.6-.1 2.3-.9 2.6-1.8.3-.9.3-1.7.2-1.9-.1-.2-.4-.3-.8-.5z"/></svg>
